<?xml version="1.0" encoding="UTF-8" standalone="no"?>
<svg
   xmlns:dc="http://purl.org/dc/elements/1.1/"
   xmlns:cc="http://creativecommons.org/ns#"
   xmlns:rdf="http://www.w3.org/1999/02/22-rdf-syntax-ns#"
   xmlns:svg="http://www.w3.org/2000/svg"
   xmlns="http://www.w3.org/2000/svg"
   xmlns:sodipodi="http://sodipodi.sourceforge.net/DTD/sodipodi-0.dtd"
   xmlns:inkscape="http://www.inkscape.org/namespaces/inkscape"
   width="120px"
   height="107px"
   viewBox="0 0 120 107"
   version="1.1"
   id="svg2"
   inkscape:version="0.91 r13725"
   sodipodi:docname="hgc-alt2.svg">
  <metadata
     id="metadata11">
    <rdf:RDF>
      <cc:Work
         rdf:about="">
        <dc:format>image/svg+xml</dc:format>
        <dc:type
           rdf:resource="http://purl.org/dc/dcmitype/StillImage" />
        <dc:title></dc:title>
      </cc:Work>
    </rdf:RDF>
  </metadata>
  <defs
     id="defs9" />
  <sodipodi:namedview
     pagecolor="#ffffff"
     bordercolor="#666666"
     borderopacity="1"
     objecttolerance="10"
     gridtolerance="10"
     guidetolerance="10"
     inkscape:pageopacity="0"
     inkscape:pageshadow="2"
     inkscape:window-width="1920"
     inkscape:window-height="1027"
     id="namedview7"
     showgrid="false"
     inkscape:zoom="2.2056075"
     inkscape:cx="3.5529661"
     inkscape:cy="53.5"
     inkscape:window-x="-8"
     inkscape:window-y="-8"
     inkscape:window-maximized="1"
     inkscape:current-layer="svg2" />
  <desc
     id="desc4">Created with Lunacy</desc>
  <path
     d="M120 31.1737C114.112 26.9432 110.557 22.9427 104.047 19.602L108.221 12.2971C91.7 4.38227 77.8703 0 59.2591 0C40.9327 0 27.2409 4.31637 10.9097 11.9486L15.7164 19.7577C15.0245 20.1162 14.3398 20.5028 13.6628 20.9238C10.4723 22.9082 0 31.476 0 31.476C0 31.476 8.65542 35.2138 9.21189 35.4508C10.2178 35.8788 10.9315 36.431 11.6001 37.0957C10.7021 40.8538 10.1172 44.5348 10.1172 49.0075C10.1172 69.5492 22.4956 87.1874 40.1794 94.8922C40.8299 95.2165 41.5182 95.4725 42.2334 95.6536L47.3767 106.657C47.3767 106.657 47.8431 106.661 48.5108 106.661C49.8565 106.661 52.0183 106.647 52.819 106.566C57.376 106.101 61.5521 103.507 65.2093 100.921C65.3111 101.166 65.426 101.413 65.5551 101.66C67.339 105.081 70.5591 106.655 73.9188 106.655C76.0972 106.655 78.3343 105.992 80.2755 104.743C83.41 102.726 85.0818 99.7351 85.4479 96.7176L85.5201 95.1207C85.4881 94.07 85.2991 93.0366 84.9597 92.0612C100.182 82.7359 110.176 68.8362 110.176 49.0075C110.176 44.5254 109.564 40.7843 108.662 36.9295C109.682 36.0538 110.73 35.3794 111.762 35.0887L120 31.1737ZM106.646 36.2705L107.481 35.5532C108.757 34.4584 109.946 33.7493 111.112 33.3899L116.511 30.824C115.368 29.9326 114.3 29.0578 113.253 28.2003C110.171 25.6743 107.259 23.2885 103.219 21.2155L101.531 20.3495L102.472 18.7022L105.675 13.0972C97.4506 9.24121 90.72 6.70277 84.0583 4.9333C76.0455 2.80473 68.1654 1.8136 59.2591 1.8136C50.5139 1.8136 42.7408 2.78357 34.7961 4.8665C28.2753 6.57612 21.6496 9.02418 13.5249 12.7375L17.2609 18.807L18.2841 20.4695L16.5509 21.3676C15.882 21.7143 15.2327 22.0833 14.6206 22.4639C12.4691 23.802 6.71878 28.3783 3.46851 30.9984C6.0544 32.1147 9.57853 33.6357 9.92221 33.782C11.0303 34.2538 11.9423 34.8789 12.8784 35.8093L13.6008 36.5268L13.3641 37.5171C12.3594 41.7216 11.9308 45.1578 11.9308 49.0075C11.9308 68.2029 23.3033 85.5609 40.9037 93.2297L40.9463 93.2482L40.988 93.2687C41.526 93.5368 42.0946 93.7475 42.6783 93.8953L43.5122 94.1063L43.8765 94.8855L48.5323 104.847C50.6073 104.847 52.1021 104.816 52.6356 104.762C56.7464 104.343 60.6045 101.956 64.1616 99.4398L66.0148 98.1292L66.8844 100.226C66.9663 100.423 67.06 100.624 67.1631 100.821C68.4952 103.376 70.9575 104.841 73.9188 104.841C75.759 104.841 77.6681 104.265 79.2943 103.218C81.7496 101.638 83.2906 99.2772 83.6391 96.564L83.7053 95.1104C83.6732 94.2641 83.5191 93.4392 83.247 92.6575L82.7667 91.2777L84.0124 90.5148C100.17 80.6167 108.363 66.6517 108.363 49.0075C108.363 45.2234 107.924 41.7349 106.896 37.3427L106.646 36.2705ZM95.5838 24.0541C95.5838 24.0541 77.5133 16.6722 59.9982 16.6722C42.483 16.6722 24.3863 24.0541 24.3863 24.0541L18.5244 14.5309L18.6248 14.4837C30.7853 8.80082 44.5965 5.59195 59.2591 5.59195C74.2875 5.59195 88.3871 8.96253 100.807 14.9127L95.5838 24.0541ZM59.4266 12.7753L58.4823 7.53612L56.9066 7.48111L58.4222 15.1134L60.1025 15.172L61.8042 9.56494L63.0983 15.2766L64.7368 15.3337L66.824 7.82721L65.2861 7.7737L63.9488 13.0211L62.8111 7.68726L60.9896 7.62378L59.4266 12.7753ZM50.8225 7.94447L52.8178 10.8115L54.3484 7.69782L56.1046 7.5751L53.6408 12.1551L53.8627 15.3252L52.3323 15.4322L52.1099 12.2521L49.0337 8.06961L50.8225 7.94447ZM67.4999 11.6844C67.5942 10.917 67.7879 10.287 68.0811 9.79434C68.2994 9.43162 68.575 9.11606 68.9084 8.84734C69.2418 8.57863 69.5937 8.39243 69.9643 8.28815C70.4573 8.14729 71.0101 8.11404 71.6225 8.18931C72.7309 8.32533 73.5757 8.77873 74.1567 9.5489C74.7377 10.3194 74.9529 11.3178 74.802 12.5447C74.653 13.761 74.206 14.672 73.4612 15.2778C72.7167 15.8838 71.7915 16.119 70.6867 15.9833C69.5677 15.8457 68.7201 15.395 68.1437 14.6303C67.5673 13.8656 67.3527 12.8838 67.4999 11.6844ZM46.178 14.8229L45.3108 8.6521L43.7919 8.8655L44.8371 16.3037L50.1171 15.5616L49.9391 14.2939L46.178 14.8229ZM70.8438 14.6808C71.4505 14.7552 71.9746 14.5983 72.4174 14.2096C72.86 13.8206 73.1347 13.1897 73.242 12.3165C73.3481 11.4538 73.2378 10.7867 72.911 10.3158C72.5846 9.84455 72.1076 9.57069 71.4807 9.49362C70.8535 9.41654 70.3218 9.56949 69.885 9.95185C69.4486 10.3345 69.1771 10.959 69.0707 11.8253C68.9661 12.6777 69.0837 13.3484 69.4238 13.8366Q69.9339 14.5693 70.8438 14.6808ZM76.7271 10.9539C76.3922 11.419 76.1441 12.0299 75.9836 12.7862C75.7324 13.9681 75.8602 14.9649 76.3681 15.7768C76.8756 16.5887 77.6805 17.1119 78.7832 17.3465C79.8722 17.5777 80.8141 17.4242 81.6091 16.8855C82.4034 16.3469 82.9282 15.4782 83.183 14.2797C83.4399 13.0706 83.3126 12.0571 82.8012 11.2392C82.2895 10.421 81.4875 9.89592 80.3949 9.66378C79.7915 9.53531 79.2381 9.5202 78.7345 9.61783C78.3564 9.68917 77.9894 9.84393 77.6339 10.0824C77.2785 10.3212 76.9762 10.6117 76.7271 10.9539ZM35.5097 12.5214C35.5907 12.1058 35.7419 11.715 35.9634 11.3486C36.1847 10.982 36.4516 10.6866 36.7641 10.4621C37.1791 10.1607 37.6873 9.94065 38.2888 9.80191C39.3769 9.55072 40.3257 9.68765 41.1349 10.213C41.9444 10.738 42.4882 11.6028 42.7662 12.807C43.0416 14.001 42.9334 15.0103 42.4407 15.8342C41.9483 16.6582 41.1594 17.1954 40.0746 17.4459C38.9764 17.6995 38.0258 17.5656 37.2224 17.0442C36.4195 16.5231 35.8818 15.6734 35.6101 14.4964C35.4363 13.7429 35.4027 13.0845 35.5097 12.5214ZM79.0534 16.0628C79.651 16.1897 80.1872 16.0788 80.6621 15.73C81.137 15.3814 81.4658 14.7769 81.6487 13.9161C81.8295 13.0658 81.7778 12.392 81.4933 11.8942C81.2092 11.3967 80.7582 11.082 80.1401 10.9505C79.5222 10.8193 78.9791 10.9251 78.5109 11.2682C78.0426 11.6113 77.7174 12.2095 77.536 13.0634C77.3577 13.9034 77.4164 14.5816 77.7126 15.0979C78.0088 15.6139 78.4558 15.9355 79.0534 16.0628ZM39.7768 16.1683C39.1817 16.3058 38.6406 16.203 38.154 15.8605C37.6673 15.5181 37.3276 14.9284 37.1344 14.0914C36.9379 13.2408 36.9796 12.5613 37.2589 12.0523C37.5382 11.5436 37.9859 11.2183 38.6013 11.076C39.217 10.9339 39.7587 11.0282 40.2266 11.3592C40.6948 11.6902 41.0264 12.2793 41.222 13.1262C41.42 13.9835 41.3773 14.6705 41.0944 15.1871C40.8115 15.7037 40.3726 16.0307 39.7768 16.1683ZM85.7571 11.0669L88.4246 11.8821C89.0264 12.0662 89.4707 12.2527 89.7582 12.4413C90.1439 12.6961 90.4392 13.0295 90.6438 13.4415C90.8488 13.8535 90.9591 14.3151 90.9754 14.8262C90.9917 15.337 90.8962 15.9319 90.6889 16.6108C90.5066 17.2068 90.2754 17.698 89.9955 18.0843C89.6536 18.5562 89.2652 18.9038 88.8299 19.1274C88.5014 19.297 88.1005 19.3853 87.6278 19.3919C87.2745 19.3956 86.828 19.3152 86.2888 19.1501L83.5424 18.3107L85.7571 11.0669ZM29.4435 15.5958L28.4723 12.775L27.0217 13.2743L29.4879 20.4366L30.9382 19.9372L29.8603 16.8063L32.6811 15.8348L33.7593 18.966L35.2098 18.4664L32.7436 11.3042L31.2931 11.8038L32.2642 14.6246L29.4435 15.5958ZM88.0537 17.9462C87.8545 18.0399 87.6278 18.0804 87.3733 18.0677C87.179 18.0586 86.8782 17.9918 86.471 17.8673L85.3838 17.5348L86.8498 12.7393L87.5045 12.9398C88.0981 13.1211 88.4899 13.2662 88.6791 13.3744C88.9333 13.5168 89.1234 13.699 89.2492 13.9212C89.3749 14.1431 89.4414 14.419 89.4481 14.7488C89.455 15.0786 89.3728 15.5232 89.2017 16.083C89.0306 16.6428 88.8463 17.0699 88.6489 17.364C88.4509 17.6581 88.2526 17.8522 88.0537 17.9462ZM75.2125 38.7724C82.0202 40.2583 86.9 46.2795 86.9 53.3145C86.9 61.5228 80.2223 68.2008 72.0139 68.2008C69.0532 68.2008 66.1578 67.3118 63.7167 65.6745L65.8268 80.7422L53.9882 80.7422L56.3293 65.6424C53.8785 67.3007 50.9668 68.2008 47.9846 68.2008C39.7763 68.2008 33.0983 61.5228 33.0983 53.3145C33.0983 46.4382 37.8478 40.4464 44.4741 38.8446C44.3387 38.0131 44.2701 37.1656 44.2701 36.3177C44.2701 27.7336 51.2536 20.75 59.8377 20.75C68.4218 20.75 75.4051 27.7336 75.4051 36.3177C75.4051 37.1405 75.3404 37.9638 75.2125 38.7724ZM64.4363 79.5331L55.3991 79.5331L57.9986 62.767L56.7663 63.8001C54.3116 65.8583 51.1928 66.9918 47.9845 66.9918C40.443 66.9918 34.3073 60.856 34.3073 53.3145C34.3073 46.8133 38.9268 41.1727 45.2919 39.9023L45.8865 39.7835L45.7659 39.1889C45.5755 38.2507 45.479 37.285 45.479 36.3177C45.479 28.4001 51.92 21.9591 59.8376 21.9591C67.7549 21.9591 74.1959 28.4001 74.1959 36.3177C74.1959 37.2647 74.1031 38.2117 73.9202 39.133L73.8002 39.7388L74.4081 39.8461C80.9458 40.9998 85.6908 46.664 85.6908 53.3145C85.6908 60.856 79.5557 66.9918 72.0139 66.9918C68.8388 66.9918 65.7451 65.8791 63.3025 63.8594L62.1025 62.8667L64.4363 79.5331ZM26.5547 26.5584C25.8803 26.5297 24.843 26.2123 24.7883 25.5612C24.7335 24.9095 25.0917 24.7514 25.521 24.5637C28.6086 23.2111 31.867 22.4052 31.867 22.4052L32.9431 26.0388C32.9431 26.0388 32.7104 25.5394 30.3615 25.8871C29.1729 26.0627 28.3688 26.2392 27.7852 26.3674C27.216 26.4923 26.8565 26.5712 26.5547 26.5584ZM88.1305 22.4052L87.0547 26.0388C87.0547 26.0388 87.2874 25.5394 89.6364 25.8871C90.8252 26.0627 91.6293 26.2393 92.213 26.3674C92.782 26.4923 93.1414 26.5712 93.4431 26.5584C94.1172 26.5297 95.1548 26.2123 95.2095 25.5612C95.264 24.9095 94.9058 24.7514 94.4769 24.5637C91.3886 23.2111 88.1305 22.4052 88.1305 22.4052ZM25.359 32.7247C30.1263 30.7109 32.6297 29.6412 32.6297 29.6412C32.6297 29.6412 33.7575 29.004 33.34 27.9911C32.7491 26.5578 31.878 26.5859 30.5991 26.7927C30.2044 26.8564 29.7587 26.9528 29.2909 27.0541C28.2434 27.2807 27.0854 27.5313 26.1428 27.4918C25.5131 27.4652 24.143 26.6932 23.5841 25.7559C22.6975 24.2687 22.1982 22.9233 22.1982 22.9233C22.1982 22.9233 19.5219 23.8111 16.4566 25.7178C13.398 27.62 9.67133 30.2996 9.67133 30.2996C9.67133 30.2996 12.4486 31.0821 14.2374 32.6427C16.0232 34.2 18.3004 36.9824 18.3004 36.9824C18.3004 36.9824 20.6034 34.7335 25.359 32.7247ZM96.4138 25.7559C97.3 24.2687 97.7994 22.9233 97.7994 22.9233C97.7994 22.9233 100.475 23.8111 103.541 25.7178C106.6 27.62 110.327 30.2996 110.327 30.2996C110.327 30.2996 107.55 31.0821 105.761 32.6427C103.976 34.2 101.699 36.9824 101.699 36.9824C101.699 36.9824 99.3959 34.7335 94.6398 32.7247C89.8721 30.7109 87.3687 29.6412 87.3687 29.6412C87.3687 29.6412 86.2407 29.004 86.6581 27.9911C87.2487 26.5578 88.1202 26.5859 89.3988 26.7927C89.7934 26.8564 90.2392 26.9528 90.7069 27.0541C91.7545 27.2807 92.9125 27.5313 93.8551 27.4918C94.4847 27.4652 95.8549 26.6932 96.4138 25.7559ZM67.6788 60.0877C68.8621 59.74 67.8217 56.8223 67.8217 56.8223C67.8217 56.8223 72.8941 60.3334 74.5009 59.0382C75.0314 58.6102 74.6614 57.4498 74.2661 56.5641L73.6996 55.4618L76.4793 56.5638C77.5508 56.9117 78.5812 57.123 78.8394 56.7639C78.8865 56.6983 78.9249 56.6309 78.9548 56.5638L78.9548 56.562C79.6969 54.8645 75.4794 52.2024 75.4794 52.2024C75.4794 52.2024 78.1003 52.4282 78.6686 51.7276C78.7275 51.6544 78.7644 51.5719 78.7741 51.4782C78.9663 49.6168 74.5336 47.6787 74.5336 47.6787C74.5336 47.6787 76.5539 47.6058 76.5884 46.4454C76.6253 45.2064 74.2071 44.6805 72.6758 44.4716C71.9685 44.3755 71.4504 44.3465 71.4504 44.3465C71.4504 44.3465 73.2266 42.5897 72.9615 41.4662C72.6928 40.3272 69.0861 40.547 69.0861 40.547C69.0861 40.547 71.2401 38.1796 70.9774 37.0818C70.7335 36.0614 67.2099 35.8821 67.2099 35.8821C67.2099 35.8821 68.8775 33.1164 67.9348 31.8626C67.4986 31.2822 65.3338 31.751 65.3338 31.751C65.3338 31.751 65.9087 28.9469 65.6239 28.2481C65.1708 27.1363 62.4792 28.8351 62.4792 28.8351C62.4792 28.8351 61.712 24.5861 60.0976 24.5861C58.4829 24.5861 57.629 28.8351 57.629 28.8351C57.629 28.8351 54.9376 27.1363 54.4845 28.2481C54.1998 28.9469 54.7747 31.751 54.7747 31.751C54.7747 31.751 52.6098 31.2822 52.1737 31.8626C51.2309 33.1164 52.8985 35.8821 52.8985 35.8821C52.8985 35.8821 49.375 36.0614 49.131 37.0818C48.8684 38.1796 51.0223 40.547 51.0223 40.547C51.0223 40.547 47.4154 40.3272 47.1467 41.4662C46.8816 42.5897 48.658 44.3465 48.658 44.3465C48.658 44.3465 48.1399 44.3755 47.4326 44.4731C45.901 44.6805 43.4829 45.2064 43.5198 46.4454C43.5545 47.6058 45.5749 47.6787 45.5749 47.6787C45.5749 47.6787 41.1421 49.6168 41.3344 51.4782C41.344 51.5719 41.3809 51.6544 41.4396 51.7266C42.0078 52.4282 44.6288 52.2024 44.6288 52.2024C44.6288 52.2024 40.4115 54.8645 41.1533 56.5638L41.1542 56.5638C41.1844 56.6321 41.2222 56.6989 41.2688 56.7639C41.5272 57.123 42.5592 56.9117 43.631 56.5638L46.4088 55.4618L45.8424 56.5656C45.447 57.4495 45.0767 58.6102 45.6075 59.0382C47.2141 60.3334 52.2867 56.8223 52.2867 56.8223C52.2867 56.8223 51.2463 59.74 52.4297 60.0877C54.5144 60.6997 57.8542 57.318 57.8542 57.318C57.8542 57.318 58.9387 61.4001 60.0828 61.4001C61.2269 61.4001 62.2543 57.318 62.2543 57.318C62.2543 57.318 65.594 60.6997 67.6788 60.0877ZM17.2954 28.612C17.2954 27.9878 17.8011 27.4821 18.4253 27.4821C19.0492 27.4821 19.5552 27.9878 19.5552 28.612C19.5552 29.2359 19.0492 29.7416 18.4253 29.7416C17.8011 29.7416 17.2954 29.2359 17.2954 28.612ZM101.607 29.7416C100.984 29.7416 100.478 29.2359 100.478 28.612C100.478 27.9878 100.984 27.4821 101.607 27.4821C102.232 27.4821 102.737 27.9878 102.737 28.612C102.737 29.2359 102.232 29.7416 101.607 29.7416ZM23.4321 29.8649C23.4321 29.241 22.9264 28.735 22.3022 28.735C21.6783 28.735 21.1726 29.241 21.1726 29.8649C21.1726 30.4891 21.6783 30.9948 22.3022 30.9948C22.9264 30.9948 23.4321 30.4891 23.4321 29.8649ZM97.7302 30.9948C97.1063 30.9948 96.6006 30.4891 96.6006 29.8649C96.6006 29.241 97.1063 28.735 97.7302 28.735C98.3543 28.735 98.8603 29.241 98.8603 29.8649C98.8603 30.4891 98.3543 30.9948 97.7302 30.9948ZM18.9775 31.0286C18.3533 31.0286 17.8477 31.5346 17.8477 32.1588C17.8477 32.7824 18.3533 33.2884 18.9775 33.2884C19.6014 33.2884 20.1074 32.7824 20.1074 32.1588C20.1074 31.5346 19.6014 31.0286 18.9775 31.0286ZM99.9253 32.1588C99.9253 32.7824 100.431 33.2884 101.055 33.2884C101.679 33.2884 102.185 32.7824 102.185 32.1588C102.185 31.5346 101.679 31.0286 101.055 31.0286C100.431 31.0286 99.9253 31.5346 99.9253 32.1588ZM60.4912 35.4432C61.7632 35.7908 63.0152 31.8514 62.0277 31.307C61.2269 30.8654 57.7741 34.7015 60.4912 35.4432ZM56.5617 36.8034C56.9395 36.35 60.4912 38.2392 59.131 40.3173C57.5885 42.674 55.9762 37.5059 56.5617 36.8034ZM49.7447 85.9949C49.7447 83.8274 48.3612 81.983 46.4294 81.2965L46.443 81.2651C34.0592 75.9476 25.3859 63.6417 25.3859 49.3097C25.3859 45.9972 25.8302 42.7931 26.7147 39.7584C26.7147 39.7584 23.6503 39.6505 21.7632 39.1838C19.8384 38.7083 17.0261 37.3375 17.0261 37.3375C15.9521 41.1482 15.4066 45.1629 15.4066 49.3097C15.4066 67.7278 26.5354 83.5463 42.4359 90.4077C43.1296 90.7738 43.9206 90.9796 44.7597 90.9796C47.5127 90.9796 49.7447 88.748 49.7447 85.9949ZM65.5919 37.8236C64.8701 37.2623 60.8506 40.4204 63.418 41.5784C64.6201 42.1203 66.4821 38.5161 65.5919 37.8236ZM93.6656 40.0688C93.6656 40.0688 96.866 39.9594 98.8413 39.486C100.681 39.0453 103.398 37.8236 103.398 37.8236C104.369 41.4892 104.887 45.3391 104.887 49.3097C104.887 67.4058 94.1248 82.9922 78.6868 90.0396L73.924 80.9211C86.1464 75.5423 94.9073 63.5386 94.9073 49.3097C94.9073 46.8133 94.6444 44.3779 94.1441 42.0308C94.0029 41.3698 93.8437 40.7157 93.6656 40.0688ZM52.1299 44.472C51.5891 43.8665 51.2775 43.1891 51.4988 42.9243C52.1755 42.114 55.4421 43.3415 55.3763 44.4732C55.372 44.5484 55.3521 44.6249 55.3149 44.7002C54.5384 46.2729 53.0222 45.4706 52.1299 44.472ZM62.4161 44.4731C61.8511 45.8566 60.4828 47.3797 59.131 46.4382C58.2841 45.8488 58.4011 45.1276 58.927 44.4747C59.8365 43.3454 61.9693 42.4211 62.456 42.7354C62.7978 42.9567 62.7353 43.693 62.4161 44.4731ZM21.8651 45.4304C21.8651 44.8062 21.3594 44.3005 20.7352 44.3005C20.1113 44.3005 19.6057 44.8062 19.6057 45.4304C19.6057 46.0543 20.1113 46.5603 20.7352 46.5603C21.3594 46.5603 21.8651 46.0543 21.8651 45.4304ZM100.427 45.4304C100.427 44.8062 99.9214 44.3005 99.2975 44.3005C98.6736 44.3005 98.1676 44.8062 98.1676 45.4304C98.1676 46.0543 98.6736 46.5603 99.2975 46.5603C99.9214 46.5603 100.427 46.0543 100.427 45.4304ZM65.9767 44.4738C66.5876 44.3247 67.3502 44.3492 67.9977 44.4732C68.7409 44.6179 69.3331 44.8942 69.3703 45.1919C69.5102 46.3109 65.4541 47.445 64.9874 46.2115C64.6026 45.1944 65.1512 44.6757 65.9767 44.4738ZM52.5188 48.5163C52.3212 46.8928 47.721 49.2027 47.8337 50.1026C47.9471 51.01 52.8589 51.3122 52.5188 48.5163ZM74.6977 50.9338C74.8102 50.034 70.21 47.724 70.0126 49.3475C69.6725 52.1435 74.5844 51.8412 74.6977 50.9338ZM55.1637 52.9369C55.7232 53.2616 57.8687 52.8538 58.696 51.7294C59.0282 51.2775 59.1479 50.7101 58.8665 50.0276C58.0951 48.1587 56.1155 50.2359 55.3523 51.7276C55.0525 52.3122 54.9406 52.8076 55.1637 52.9369ZM64.2572 51.7276C64.1048 51.3552 64.1112 50.9118 64.3621 50.3961C64.8638 49.3647 66.7445 50.6098 67.6861 51.727C68.0875 52.203 68.3184 52.6558 68.1991 52.8992C67.8783 53.553 64.8533 53.1845 64.2572 51.7276ZM102.298 58.1151C102.447 57.2355 102.529 56.6793 102.545 56.4451C102.569 56.0721 102.515 55.745 102.384 55.4642C102.252 55.1834 102.052 54.9449 101.784 54.7487C101.515 54.5526 101.226 54.4271 100.915 54.3727C100.52 54.3029 100.157 54.3537 99.8257 54.5251C99.4942 54.6958 99.2315 54.9782 99.0371 55.3708C98.9558 55.0537 98.7974 54.7856 98.5617 54.5668C98.3259 54.3485 98.0484 54.211 97.7298 54.1548C97.436 54.1028 97.1582 54.1258 96.8971 54.224Q96.5049 54.3709 96.236 54.6475C96.0568 54.8319 95.9214 55.0528 95.8295 55.31C95.7382 55.5679 95.6448 55.9666 95.5496 56.5064L95.0684 59.2347L101.888 60.4371L102.298 58.1151ZM18.8614 60.4204C18.5256 59.928 18.2935 59.4042 18.1653 58.8493C18.0027 58.1441 18.0091 57.4951 18.1847 56.9024C18.3606 56.3096 18.694 55.8178 19.1852 55.4267C19.6764 55.0356 20.2461 54.765 20.8951 54.6151C21.5994 54.4525 22.2592 54.4552 22.8746 54.6236C23.4898 54.7913 24.0091 55.1256 24.4322 55.6253C24.7566 56.0061 24.9932 56.5185 25.1419 57.1626C25.3351 58.0002 25.31 58.6948 25.0664 59.247C24.8231 59.799 24.4062 60.2143 23.8159 60.4927L23.2482 59.1941C23.5584 59.0228 23.7793 58.7837 23.9108 58.4775C24.0426 58.1713 24.0632 57.8225 23.9728 57.4304C23.8356 56.8362 23.5375 56.4075 23.0784 56.1443C22.6195 55.881 22.0183 55.835 21.2747 56.0067C20.4725 56.1917 19.9121 56.5085 19.5932 56.9565C19.274 57.4044 19.1809 57.9162 19.3139 58.4926C19.3798 58.7773 19.5016 59.05 19.68 59.3108C19.8583 59.5711 20.0509 59.7857 20.2579 59.954L21.1145 59.7561L20.7558 58.2012L21.8959 57.9379L22.5727 60.869L19.8795 61.4908C19.5367 61.2695 19.1973 60.9128 18.8614 60.4204ZM97.6884 55.5325C97.478 55.4953 97.297 55.5231 97.1452 55.6162C96.9935 55.7093 96.8835 55.8677 96.8152 56.092C96.7756 56.2259 96.6988 56.6161 96.5845 57.2633L96.4452 58.0531L98.0173 58.3303L98.176 57.4292C98.2706 56.8933 98.3217 56.5587 98.3289 56.426C98.3428 56.186 98.2942 55.9865 98.1835 55.8278C98.0729 55.6697 97.9079 55.5712 97.6884 55.5325ZM100.049 55.8369C100.21 55.7628 100.393 55.7438 100.598 55.7801C100.841 55.823 101.023 55.9215 101.145 56.076C101.267 56.2301 101.328 56.413 101.329 56.6243C101.334 56.7627 101.292 57.0804 101.205 57.577L100.98 58.8529L99.1509 58.5304L99.3471 57.4174C99.4577 56.7905 99.5623 56.3888 99.6605 56.2126C99.759 56.0364 99.8884 55.9112 100.049 55.8369ZM100.369 65.3444C100.133 65.9598 99.8821 66.399 99.6173 66.662C99.3525 66.9249 99.0705 67.1054 98.7715 67.2021C98.4726 67.2992 98.1866 67.3291 97.914 67.2916C97.5105 67.2345 96.9467 67.0667 96.2228 66.7886L92.77 65.4632L93.2727 64.1538L96.7766 65.4989C97.3327 65.7122 97.6991 65.8347 97.8762 65.8658C98.1622 65.912 98.4254 65.8619 98.6654 65.7156C98.9057 65.569 99.0953 65.3151 99.2337 64.9545C99.3745 64.5875 99.4051 64.2819 99.325 64.0374C99.2449 63.7932 99.1019 63.6094 98.8958 63.487C98.6896 63.3642 98.3305 63.2046 97.8185 63.0082L94.2399 61.6344L94.7426 60.325L98.1422 61.6301C98.9193 61.9285 99.4547 62.1742 99.7485 62.3677C100.042 62.5614 100.263 62.7948 100.412 63.0686C100.56 63.3425 100.639 63.6626 100.648 64.0292C100.658 64.3962 100.564 64.8345 100.369 65.3444ZM20.5596 64.1411C20.2178 64.9469 20.2483 65.8241 20.6509 66.7729C21.0487 67.7102 21.6578 68.3347 22.4778 68.6476C23.2979 68.9601 24.2237 68.8975 25.255 68.4599C26.2951 68.0182 26.9873 67.3916 27.3319 66.5795C27.6762 65.7673 27.649 64.8913 27.25 63.9512C27.0297 63.4319 26.7507 63.0094 26.4136 62.6835C26.1618 62.4375 25.8532 62.2443 25.4881 62.1032C25.123 61.9617 24.7472 61.8877 24.3603 61.881C23.8362 61.8738 23.2486 62.0083 22.5978 62.2848C21.581 62.7165 20.9018 63.3352 20.5596 64.1411ZM24.7224 67.1205C25.4542 66.8095 25.9318 66.4174 26.1555 65.9435C26.3791 65.4698 26.3782 64.9672 26.1524 64.4352C25.9266 63.9035 25.5627 63.5522 25.06 63.3812C24.5577 63.2107 23.9389 63.2811 23.2044 63.5931C22.4817 63.8999 22.0047 64.2995 21.7735 64.7918C21.5423 65.2845 21.5356 65.7878 21.7538 66.3023C21.9724 66.8164 22.3366 67.1598 22.8465 67.3327C23.3568 67.5053 23.9822 67.4346 24.7224 67.1205ZM25.7888 75.7194L23.1337 71.6306L28.8934 67.8904L29.6573 69.0668L24.8793 72.1699L26.7706 75.0819L25.7888 75.7194ZM89.9181 70.1973L95.7422 73.8366L98.3253 69.7025L97.333 69.0822L95.4928 72.0269L90.6614 69.0079L89.9181 70.1973ZM93.4519 76.1447C93.4033 76.752 93.1303 77.3317 92.6325 77.8842C92.0168 78.568 91.2771 78.9195 90.4135 78.9392C89.55 78.9585 88.7127 78.6033 87.9023 77.874C87.0451 77.1017 86.5784 76.281 86.5025 75.4114C86.4266 74.5418 86.7135 73.7465 87.3631 73.0253C87.9301 72.3954 88.577 72.0517 89.3042 71.9943C89.7355 71.9586 90.2104 72.0683 90.7285 72.3228L90.0475 73.5706C89.7262 73.3919 89.4015 73.3294 89.073 73.3838C88.7447 73.4382 88.4561 73.6035 88.2073 73.8801C87.8636 74.2619 87.7212 74.6947 87.7808 75.1793C87.8403 75.6632 88.1768 76.1813 88.7895 76.7329C89.4396 77.3187 90.0085 77.6185 90.4955 77.6328C90.9824 77.647 91.395 77.4662 91.7326 77.0914C91.9814 76.8148 92.1077 76.4977 92.1117 76.1405C92.115 75.7832 91.9678 75.3914 91.6685 74.9652L92.8837 74.2371C93.3111 74.9018 93.5003 75.5374 93.4519 76.1447ZM32.2319 74.3338L34.5207 76.7885L35.3767 75.9902L32.1312 72.5099L27.0662 77.2331L28.0228 78.2587L30.1732 76.2532L32.1521 78.3757L33.0081 77.5774L31.0292 75.4552L32.2319 74.3338ZM77.1171 90.444L72.4386 81.0855C72.4386 81.0855 68.1585 81.0683 64.7939 82.725C61.4291 84.3812 58.5609 87.3431 55.0383 89.3668C51.5159 91.3907 46.2335 92.0216 46.2335 92.0216L50.7542 101.694C50.7542 101.694 53.3392 101.7 55.2314 100.97C57.6495 100.037 58.7755 99.1366 60.5628 98.1113C62.3498 97.0858 67.6806 92.3368 71.2984 90.9458C74.2528 89.8093 77.1171 90.444 77.1171 90.444ZM81.6882 84.5683C81.064 84.5683 80.5583 84.0623 80.5583 83.4384C80.5583 82.8142 81.064 82.3085 81.6882 82.3085C82.3121 82.3085 82.8181 82.8142 82.8181 83.4384C82.8181 84.0623 82.3121 84.5683 81.6882 84.5683ZM54.6728 88.4134C52.9342 89.3284 48.5555 90.6094 48.5555 90.6094C48.5555 90.6094 49.8925 89.8748 50.5901 87.8953C51.4736 85.3886 49.7622 82.7054 49.7622 82.7054C49.7622 82.7054 52.6664 84.126 54.5812 84.4921C56.4961 84.8578 59.143 85.3155 59.143 85.3155C59.143 85.3155 56.4112 87.4984 54.6728 88.4134ZM70.7365 89.3553L69.6347 89.8459L69.1036 88.6531L66.6846 89.7301L66.2439 88.7402L67.1286 83.8247L68.0847 83.3991L69.7629 87.1687L70.5001 86.8401L70.9426 87.8343L70.2054 88.1625L70.7365 89.3553ZM42.1515 86.6391C41.5273 86.6391 41.0216 86.1334 41.0216 85.5092C41.0216 84.8853 41.5273 84.3793 42.1515 84.3793C42.7754 84.3793 43.2814 84.8853 43.2814 85.5092C43.2814 86.1334 42.7754 86.6391 42.1515 86.6391ZM67.3046 88.2629L68.6611 87.659L67.7595 85.6341L67.3046 88.2629ZM65.3637 92.2628C65.8849 91.9112 66.1675 91.4533 66.2104 90.8884C66.2615 90.204 65.9429 89.3513 65.2543 88.3306C64.5643 87.3074 63.895 86.6929 63.247 86.4871C62.7017 86.3123 62.1682 86.4009 61.6468 86.7524C61.1254 87.1043 60.8433 87.5622 60.8001 88.1268C60.749 88.8112 61.0658 89.6615 61.7514 90.6774C62.4496 91.7129 63.0952 92.3244 63.6883 92.5118C64.2813 92.6995 64.8396 92.6161 65.3637 92.2628ZM63.1898 87.824C63.4123 88.0183 63.7373 88.4324 64.1644 89.0657C64.5915 89.6992 64.8596 90.172 64.9687 90.4839C65.0545 90.726 65.0763 90.9195 65.034 91.0643C64.9911 91.2091 64.9085 91.323 64.7855 91.4058C64.6628 91.489 64.5274 91.5231 64.3793 91.5086C64.2309 91.4944 64.0456 91.3901 63.8231 91.1952C63.6006 91.0005 63.276 90.5864 62.8486 89.9534C62.4215 89.3199 62.1525 88.8459 62.0421 88.5313C61.956 88.2892 61.9342 88.0957 61.9768 87.9512C62.0192 87.8061 62.102 87.6922 62.225 87.6097C62.3477 87.5265 62.4837 87.493 62.6328 87.5087C62.7818 87.5241 62.9674 87.6293 63.1898 87.824ZM61.1786 95.4728C60.7796 95.7848 60.3736 95.9296 59.9604 95.9075C59.5475 95.8854 59.1398 95.6887 58.7374 95.3172L59.6059 94.4693C59.7803 94.6455 59.9526 94.7423 60.1224 94.7604C60.2923 94.7782 60.4567 94.725 60.6157 94.6008C60.8164 94.4439 60.9138 94.2172 60.9083 93.9201C60.9026 93.623 60.6895 93.1653 60.269 92.5466C60.2464 93.0251 60.0499 93.4087 59.6805 93.6973C59.2782 94.0117 58.81 94.1275 58.2756 94.0452C57.7415 93.9624 57.2796 93.6722 56.8909 93.1744C56.4856 92.656 56.313 92.1174 56.3731 91.5591C56.4333 91.0008 56.702 90.5353 57.1786 90.1629Q57.9567 89.5554 58.927 89.7685C59.5735 89.9108 60.2566 90.4422 60.976 91.3632C61.7081 92.3 62.0636 93.1109 62.0421 93.7962C62.0207 94.4808 61.7329 95.04 61.1786 95.4728ZM57.7701 91.0129C57.9603 90.8642 58.1957 90.8204 58.4768 90.8808C58.7577 90.9416 59.0215 91.1296 59.2682 91.4452C59.4931 91.7329 59.5989 92.0013 59.5862 92.2504C59.5735 92.4992 59.4728 92.6974 59.2848 92.8443C59.0901 92.9967 58.8674 93.0463 58.6171 92.9937C58.3662 92.9408 58.1123 92.75 57.8551 92.4203C57.6012 92.0956 57.4785 91.8151 57.4863 91.5794C57.4945 91.343 57.5891 91.1544 57.7701 91.0129ZM78.8458 92.4653C77.0627 91.1701 75.7218 91.2462 74.802 91.3224C73.8826 91.3986 72.7905 91.7543 72.7905 91.7543C72.7905 91.7543 72.7962 92.3622 73.0447 93.1563C73.2986 93.9691 74.3299 95.1283 74.3299 95.1283C74.3299 95.1283 71.8788 95.4716 71.0914 96.2336L71.0657 96.2585C70.2842 97.0145 69.3912 97.8784 70.2454 99.5166C71.1089 101.173 72.2772 101.63 74.2383 101.655C76.1991 101.68 78.9274 100.004 79.6894 98.0687C80.4511 96.1333 80.6292 93.7605 78.8458 92.4653ZM54.7421 94.1087L57.0209 98.2201L58.1075 97.618L54.9422 91.9073L54.0605 92.3964C54.1285 92.8105 54.068 93.2394 53.8791 93.6831C53.6902 94.1265 53.4798 94.4735 53.2477 94.7235L53.7972 95.7149C54.2367 95.2374 54.5517 94.702 54.7421 94.1087ZM72.8437 94.6041C72.8437 94.6041 71.7773 94.7643 70.7994 95.4378C69.5492 96.2996 69.2065 97.4185 69.2065 97.4185L67.0879 94.9596C67.0879 94.9596 67.9672 94.0628 68.9864 93.2947C70.4464 92.1951 70.8575 92.2392 71.6195 91.9575C71.6195 91.9575 71.572 92.4411 71.8988 93.334C72.2131 94.1928 72.8437 94.6041 72.8437 94.6041Z"
     id="Fill-1"
     fill="#FFFFFF"
     fill-rule="evenodd"
     stroke="none"
     style="fill:#282828;fill-opacity:1" />
</svg>
