<?xml version="1.0" encoding="utf-8"?>
<svg width="30px" height="30px" viewBox="0 0 30 30" version="1.1" xmlns:xlink="http://www.w3.org/1999/xlink" xmlns="http://www.w3.org/2000/svg">
  <desc>Created with Lunacy</desc>
  <path d="M30 15C30 23.2843 23.2843 30 15 30C6.71573 30 0 23.2843 0 15C0 6.71573 6.71573 0 15 0C23.2843 0 30 6.71573 30 15ZM16.0944 15.5872L18.7709 15.5872L19.1252 12.1443L16.0946 12.1443L16.0946 10.1161C16.0946 9.35541 16.5973 9.17679 16.9548 9.17679L19.1343 9.17679L19.1343 5.83175L16.1305 5.81918C12.7967 5.81918 12.0392 8.31633 12.0392 9.91104L12.0392 12.1411L10.1105 12.1411L10.1105 15.5872L12.0392 15.5872L12.0392 25.3929L16.0944 25.3929L16.0944 15.5872Z" id="Combined-Shape" fill="#FFFFFF" fill-rule="evenodd" stroke="none" />
</svg>