<?xml version="1.0" encoding="UTF-8" standalone="no"?>
<svg
   xmlns:dc="http://purl.org/dc/elements/1.1/"
   xmlns:cc="http://creativecommons.org/ns#"
   xmlns:rdf="http://www.w3.org/1999/02/22-rdf-syntax-ns#"
   xmlns:svg="http://www.w3.org/2000/svg"
   xmlns="http://www.w3.org/2000/svg"
   xmlns:sodipodi="http://sodipodi.sourceforge.net/DTD/sodipodi-0.dtd"
   xmlns:inkscape="http://www.inkscape.org/namespaces/inkscape"
   width="30px"
   height="30px"
   viewBox="0 0 30 30"
   version="1.1"
   id="svg2"
   inkscape:version="0.91 r13725"
   sodipodi:docname="instagram_secondary.svg">
  <metadata
     id="metadata11">
    <rdf:RDF>
      <cc:Work
         rdf:about="">
        <dc:format>image/svg+xml</dc:format>
        <dc:type
           rdf:resource="http://purl.org/dc/dcmitype/StillImage" />
        <dc:title></dc:title>
      </cc:Work>
    </rdf:RDF>
  </metadata>
  <defs
     id="defs9" />
  <sodipodi:namedview
     pagecolor="#000000"
     bordercolor="#666666"
     borderopacity="1"
     objecttolerance="10"
     gridtolerance="10"
     guidetolerance="10"
     inkscape:pageopacity="0"
     inkscape:pageshadow="2"
     inkscape:window-width="1920"
     inkscape:window-height="1027"
     id="namedview7"
     showgrid="false"
     inkscape:zoom="7.8666667"
     inkscape:cx="-0.82627119"
     inkscape:cy="15"
     inkscape:window-x="-8"
     inkscape:window-y="-8"
     inkscape:window-maximized="1"
     inkscape:current-layer="svg2" />
  <desc
     id="desc4">Created with Lunacy</desc>
  <path
     d="M15 0C6.717 0 0 6.717 0 15C0 23.283 6.717 30 15 30C23.283 30 30 23.283 30 15C30 6.717 23.283 0 15 0ZM23.5613 18.5511C23.5197 19.468 23.3739 20.094 23.161 20.6419C22.7135 21.7989 21.7989 22.7135 20.6419 23.161C20.0942 23.3739 19.468 23.5194 18.5513 23.5613C17.6328 23.6032 17.3394 23.6133 15.0002 23.6133C12.6608 23.6133 12.3676 23.6032 11.4489 23.5613C10.5322 23.5194 9.90601 23.3739 9.35829 23.161C8.78334 22.9447 8.26286 22.6057 7.83257 22.1674C7.39449 21.7374 7.05551 21.2167 6.83922 20.6419C6.62636 20.0942 6.48056 19.468 6.4389 18.5513C6.39656 17.6326 6.38672 17.3392 6.38672 15C6.38672 12.6608 6.39656 12.3674 6.43867 11.4489C6.48033 10.532 6.6259 9.90601 6.83876 9.35806C7.05505 8.78334 7.39426 8.26263 7.83257 7.83257C8.26263 7.39426 8.78334 7.05528 9.35806 6.83899C9.90601 6.62613 10.532 6.48056 11.4489 6.43867C12.3674 6.39679 12.6608 6.38672 15 6.38672C17.3392 6.38672 17.6326 6.39679 18.5511 6.4389C19.468 6.48056 20.094 6.62613 20.6419 6.83876C21.2167 7.05505 21.7374 7.39426 22.1677 7.83257C22.6057 8.26286 22.9449 8.78334 23.161 9.35806C23.3741 9.90601 23.5197 10.532 23.5616 11.4489C23.6034 12.3674 23.6133 12.6608 23.6133 15C23.6133 17.3392 23.6034 17.6326 23.5613 18.5511ZM21.0701 8.92984C21.3562 9.2077 21.5764 9.54622 21.7144 9.92021C21.8325 10.2237 21.9728 10.6799 22.011 11.5196C22.0525 12.4278 22.0612 12.7002 22.0612 15.0002C22.0612 17.3 22.0525 17.5724 22.011 18.4809C21.9726 19.3206 21.8323 19.7766 21.7144 20.08C21.4247 20.8312 20.8309 21.425 20.0797 21.7147C19.7762 21.8328 19.3201 21.9731 18.4803 22.0114C17.5723 22.0528 17.3 22.0615 14.9997 22.0615C12.6997 22.0615 12.4275 22.0528 11.5193 22.0114C10.6796 21.9731 10.2234 21.8328 9.91991 21.7147C9.54568 21.5767 9.2074 21.3565 8.92953 21.0704C8.64343 20.7926 8.42348 20.4543 8.28523 20.08C8.16736 19.7766 8.02705 19.3206 7.98883 18.4809C7.9474 17.5724 7.93848 17.3 7.93848 15.0002C7.93848 12.7002 7.9474 12.4278 7.98883 11.5196C8.02705 10.6799 8.16736 10.2237 8.28523 9.92021C8.42348 9.54599 8.64366 9.2077 8.92976 8.92984C9.2074 8.64374 9.54591 8.42355 9.92014 8.28554C10.2234 8.16766 10.6796 8.02736 11.5193 7.98891C12.4275 7.94748 12.6999 7.93878 14.9999 7.93878C17.2997 7.93878 17.5721 7.94771 18.4805 7.98914C19.3203 8.02736 19.7762 8.16766 20.0797 8.28554C20.454 8.42355 20.7923 8.64374 21.0701 8.92984ZM18.5641 10.4022C18.5641 10.9731 19.0269 11.4359 19.5977 11.4359C20.1685 11.4359 20.6311 10.9731 20.6313 10.4022C20.6313 9.83141 20.1685 9.36861 19.5977 9.36861C19.0269 9.36861 18.5641 9.83141 18.5641 10.4022ZM14.9999 19.4229C12.5571 19.4229 10.5768 17.4429 10.5768 15C10.5768 12.5572 12.5571 10.5771 14.9999 10.5771C17.4426 10.5771 19.4229 12.5572 19.4229 15C19.4229 17.4429 17.4426 19.4229 14.9999 19.4229ZM15 17.8711C16.5857 17.8711 17.8711 16.5857 17.8711 15C17.8711 13.4143 16.5857 12.1289 15 12.1289C13.4143 12.1289 12.1289 13.4143 12.1289 15C12.1289 16.5857 13.4143 17.8711 15 17.8711Z"
     id="Combined-Shape"
     fill="#FFFFFF"
     fill-rule="evenodd"
     stroke="none"
     style="fill:#666666;fill-opacity:1" />
</svg>
