<?xml version="1.0" encoding="utf-8"?>
<svg width="30px" height="30px" viewBox="0 0 30 30" version="1.1" xmlns:xlink="http://www.w3.org/1999/xlink" xmlns="http://www.w3.org/2000/svg">
  <desc>Created with Lunacy</desc>
  <path d="M15 0C6.717 0 0 6.717 0 15C0 23.283 6.717 30 15 30C23.283 30 30 23.283 30 15C30 6.717 23.283 0 15 0ZM8.81476 10.1843L8.79095 10.1843C7.56506 10.1843 6.77222 9.34044 6.77222 8.28575C6.77222 7.20726 7.58932 6.38672 8.83902 6.38672C10.0887 6.38672 10.8578 7.20726 10.8816 8.28575C10.8816 9.34044 10.0887 10.1843 8.81476 10.1843ZM20.161 22.6758L23.8137 22.6758L23.8137 16.3737C23.8137 12.998 22.0115 11.4272 19.608 11.4272C17.6699 11.4272 16.8013 12.4924 16.3158 13.2413L16.3158 11.6851L12.6628 11.6851C12.7107 12.7162 12.6628 22.6758 12.6628 22.6758L16.3158 22.6758L16.3158 16.5381C16.3158 16.2096 16.3394 15.8814 16.436 15.6466C16.7001 14.9904 17.3011 14.3106 18.3103 14.3106C19.6321 14.3106 20.161 15.3184 20.161 16.796L20.161 22.6758ZM6.98804 22.6758L10.6412 22.6758L10.6412 11.6851L6.98804 11.6851L6.98804 22.6758Z" id="Combined-Shape" fill="#FFFFFF" fill-rule="evenodd" stroke="none" />
</svg>