<?xml version="1.0" encoding="utf-8"?>
<svg width="15px" height="15px" viewBox="0 0 15 15" version="1.1" xmlns:xlink="http://www.w3.org/1999/xlink" xmlns="http://www.w3.org/2000/svg">
  <desc>Created with Lunacy</desc>
  <path d="M13.2422 1.17188L12.5391 1.17188L12.5391 0L11.3672 0L11.3672 1.17188L3.63281 1.17188L3.63281 0L2.46094 0L2.46094 1.17188L1.75781 1.17188C0.788555 1.17188 0 1.96043 0 2.92969L0 13.2422C0 14.2114 0.788555 15 1.75781 15L13.2422 15C14.2114 15 15 14.2114 15 13.2422L15 2.92969C15 1.96043 14.2114 1.17188 13.2422 1.17188ZM13.8281 4.33594L1.17188 4.33594L1.17188 2.92969C1.17188 2.6066 1.43473 2.34375 1.75781 2.34375L2.46094 2.34375L2.46094 3.51563L3.63281 3.51563L3.63281 2.34375L11.3672 2.34375L11.3672 3.51563L12.5391 3.51563L12.5391 2.34375L13.2422 2.34375C13.5653 2.34375 13.8281 2.6066 13.8281 2.92969L13.8281 4.33594ZM13.2422 13.8281C13.5653 13.8281 13.8281 13.5653 13.8281 13.2422L13.8281 5.50781L1.17188 5.50781L1.17188 13.2422C1.17188 13.5653 1.43473 13.8281 1.75781 13.8281L13.2422 13.8281ZM2.22656 6.73828L3.39844 6.73828L3.39844 7.91016L2.22656 7.91016L2.22656 6.73828ZM5.74219 6.73828L4.57031 6.73828L4.57031 7.91016L5.74219 7.91016L5.74219 6.73828ZM6.91406 6.73828L8.08594 6.73828L8.08594 7.91016L6.91406 7.91016L6.91406 6.73828ZM10.4297 6.73828L9.25781 6.73828L9.25781 7.91016L10.4297 7.91016L10.4297 6.73828ZM11.6016 6.73828L12.7734 6.73828L12.7734 7.91016L11.6016 7.91016L11.6016 6.73828ZM3.39844 9.08203L2.22656 9.08203L2.22656 10.2539L3.39844 10.2539L3.39844 9.08203ZM4.57031 9.08203L5.74219 9.08203L5.74219 10.2539L4.57031 10.2539L4.57031 9.08203ZM8.08594 9.08203L6.91406 9.08203L6.91406 10.2539L8.08594 10.2539L8.08594 9.08203ZM9.25781 9.08203L10.4297 9.08203L10.4297 10.2539L9.25781 10.2539L9.25781 9.08203ZM12.7734 9.08203L11.6016 9.08203L11.6016 10.2539L12.7734 10.2539L12.7734 9.08203ZM3.39844 11.4258L2.22656 11.4258L2.22656 12.5977L3.39844 12.5977L3.39844 11.4258ZM4.57031 11.4258L5.74219 11.4258L5.74219 12.5977L4.57031 12.5977L4.57031 11.4258ZM8.08594 11.4258L6.91406 11.4258L6.91406 12.5977L8.08594 12.5977L8.08594 11.4258ZM9.25781 11.4258L10.4297 11.4258L10.4297 12.5977L9.25781 12.5977L9.25781 11.4258Z" id="Combined-Shape" fill="#111111" fill-rule="evenodd" stroke="none" />
</svg>