<?xml version="1.0" encoding="utf-8"?>
<svg width="63px" height="23px" viewBox="0 0 63 23" version="1.1" xmlns:xlink="http://www.w3.org/1999/xlink" xmlns="http://www.w3.org/2000/svg">
  <desc>Created with Lunacy</desc>
  <path d="M6.85912 21.9988C5.00636 21.9257 3.49052 21.4222 2.30526 20.4871C2.07906 20.3085 1.54004 19.7729 1.35921 19.547C0.878571 18.9468 0.551799 18.3627 0.333846 17.7147C-0.336828 15.7197 0.00834368 13.1019 1.32114 10.2289C2.44517 7.76928 4.1796 5.3298 7.20556 1.95114C7.6513 1.45398 8.97869 0 8.98726 0C8.99043 0 8.9181 0.124447 8.82705 0.275989C8.04026 1.58473 7.36704 3.1263 7.0003 4.46088C6.41116 6.60231 6.48222 8.44003 7.20842 9.86503C7.70936 10.8467 8.56817 11.6971 9.53389 12.1671C11.2245 12.9898 13.6997 13.0578 16.7225 12.3663C16.9307 12.3184 27.2433 9.59976 39.6397 6.32475C52.036 3.04943 62.1802 0.371766 62.1818 0.373971C62.1853 0.376807 33.3815 12.6167 18.429 18.9667C16.0611 19.972 15.4278 20.226 14.3146 20.6141C11.4688 21.6065 8.91968 22.0801 6.85912 21.9988Z" id="Combined-Shape" fill="#FFFFFF" stroke="none" />
</svg>