<?xml version="1.0" encoding="utf-8"?>
<svg width="63px" height="17px" viewBox="0 0 63 17" version="1.1" xmlns:xlink="http://www.w3.org/1999/xlink" xmlns="http://www.w3.org/2000/svg">
  <desc>Created with Lunacy</desc>
  <path d="M44.0078 12.4641C44.0078 14.4882 45.6482 16.1296 47.6728 16.1296L58.5163 16.1296C60.54 16.1296 62.1818 14.4882 62.1818 12.4641L62.1818 9.90576C62.1818 7.88213 60.54 6.24125 58.5163 6.24125L51.9959 6.23109C50.9836 6.23109 50.1629 7.04983 50.1629 8.0631C50.1629 9.07492 50.9836 9.89512 51.9959 9.89512L58.5207 9.89512L58.5207 12.4626L47.6718 12.4641L47.6709 3.66791L59.3525 3.66646C60.3648 3.66646 61.1845 2.8453 61.1845 1.83299C61.1845 0.820209 60.3648 1.14441e-05 59.3525 1.14441e-05L47.6728 0.00339508C45.6482 0.00339508 44.0078 1.64572 44.0078 3.66936L44.0078 12.4641ZM27.8011 14.2923C27.8011 15.3051 26.9799 16.1253 25.9671 16.1253C24.9553 16.1253 24.1351 15.3051 24.1351 14.2923L24.1376 2.52259C24.1376 1.13188 25.266 0.00247955 26.6562 0.00247955C27.3022 0.00247955 27.9472 0.249265 28.4389 0.740898L38.7942 10.9452L38.798 1.83305C38.798 0.820259 39.6168 6.29425e-05 40.6286 6.29425e-05C41.6414 6.29425e-05 42.4616 0.82026 42.4616 1.83305L42.4635 13.609C42.4635 14.9988 41.3356 16.1287 39.9439 16.1287C39.3003 16.1287 38.6553 15.8819 38.1617 15.3902L27.8011 5.02286L27.8011 14.2923ZM13.7111 9.98236C15.7362 9.98236 17.3766 8.341 17.3766 6.31688L17.3766 3.66951C17.3766 1.64587 15.7362 0.00354195 13.7111 0.00354195L1.8325 0.000150681C0.821652 0.000150681 2.75649e-06 0.820347 2.53918e-06 1.83313L0 14.2924C0 15.3052 0.821648 16.1254 1.8325 16.1254C2.84577 16.1254 3.66597 15.3052 3.66597 14.2924L3.6679 9.97897L13.7111 9.98236ZM22.5955 14.2981C22.5955 15.3099 21.7758 16.1306 20.762 16.1306C19.7502 16.1306 18.9295 15.3099 18.9295 14.2981L18.9295 1.83493C18.9295 0.823598 19.7502 0.00243378 20.762 0.00243378C21.7758 0.00243378 22.5955 0.823599 22.5955 1.83493L22.5955 14.2981ZM13.7111 3.66951L13.7101 6.30527L3.6679 6.30526L3.6679 3.66805L13.7111 3.66951Z" id="Combined-Shape" fill="#FFFFFF" fill-rule="evenodd" stroke="none" />
</svg>