<?xml version="1.0" encoding="utf-8"?>
<svg width="104px" height="21px" viewBox="0 0 104 21" version="1.1" xmlns:xlink="http://www.w3.org/1999/xlink" xmlns="http://www.w3.org/2000/svg">
  <desc>Created with Lunacy</desc>
  <path d="M1.14478 4.51415C3.40901 1.8709 7.27541 0.0311575 11.775 0.000395981C14.4747 -0.0180568 17.4018 0.6073 20.3446 2.11008C20.9078 2.39726 21.2434 2.9991 21.2113 3.63102L21.2113 3.72915C21.2108 3.74306 21.2114 3.75663 21.212 3.77019C21.2128 3.78907 21.2136 3.80784 21.2113 3.82727C21.1963 3.9568 21.1655 4.09418 21.1459 4.23613C16.1245 3.4243 9.3755 2.79304 1.14478 4.51415ZM40.7709 3.15674L38.236 14.4575L41.1961 14.4575L43.731 3.15674L40.7709 3.15674ZM91.6324 7.88309L92.6627 3.15674L95.541 3.15674L93.2678 13.28C93.1703 13.747 93.1206 14.1415 93.0879 14.4575L90.3895 14.4575L90.6184 13.1982L90.5857 13.1982C89.8374 14.0715 89.1394 14.6374 87.5112 14.6374C85.6886 14.6374 84.3548 13.1609 84.3548 11.3992C84.3548 8.82378 85.7593 6.42757 88.6559 6.42757C90.137 6.42757 91.1607 7.03987 91.5997 7.88309L91.6324 7.88309ZM62.3748 3.94177L59.9053 14.4575L62.6692 14.4575L64.648 5.83886L64.6808 5.83886L65.0896 14.4575L67.9679 14.4575L72.4163 5.83886L72.449 5.83886L70.3884 14.4575L73.3485 14.4575L75.7525 3.94177L70.9117 3.94177L67.3465 11.0068L67.3138 11.0068L67.1339 3.94177L62.3748 3.94177ZM22.5361 6.88553C23.3989 6.61405 24.3252 6.42761 25.6433 6.42761C27.6614 6.42761 29.323 7.16551 29.323 9.09334C29.323 10.3284 28.5694 12.0934 28.2437 14.4575L25.8559 14.4575L25.9868 13.3618L25.9541 13.3291L25.9541 13.3618C25.3359 14.2652 24.2474 14.6374 23.1084 14.6374C21.2859 14.6374 20.2792 13.8851 20.2792 12.3642C20.2792 10.437 22.3529 9.48584 24.9401 9.48584C25.5262 9.48584 26.1196 9.53752 26.5265 9.56761C26.5592 9.46229 26.5592 9.34586 26.5592 9.24053C26.5592 8.68318 25.9488 8.24293 24.9892 8.24293C23.9314 8.24293 23.2177 8.38161 22.2417 8.84803L22.5361 6.88553ZM48.343 6.42761C45.0231 6.42761 42.8643 8.30049 42.8643 11.0558C42.8643 13.0288 44.1393 14.6374 47.2799 14.6374C50.4533 14.6374 52.7422 13.2113 52.7422 9.94376C52.7422 7.97145 51.2233 6.42761 48.343 6.42761ZM56.6999 8.22657C57.1716 7.30812 58.1123 6.42761 59.3166 6.42761C59.7071 6.42761 60.1696 6.47341 60.5595 6.62386L59.889 9.02793C59.5148 8.75645 59.1014 8.68449 58.548 8.68449C57.3116 8.68449 56.5684 9.6834 56.3565 10.8432L55.5224 14.4575L52.595 14.4575L53.9197 8.65178C54.0663 7.97406 54.1984 7.31532 54.2795 6.60751L56.9943 6.60751L56.6672 8.22657L56.6999 8.22657ZM80.0864 6.42761C78.7682 6.42761 77.8413 6.61405 76.9791 6.88553L76.6847 8.84803C77.6608 8.38161 78.3744 8.24293 79.4322 8.24293C80.3925 8.24293 80.9859 8.68318 80.9859 9.24053C80.9859 9.34586 80.9859 9.46229 80.9532 9.56761C80.5463 9.53752 79.9693 9.48584 79.3832 9.48584C76.7953 9.48584 74.7059 10.437 74.7059 12.3642C74.7059 13.8851 75.729 14.6374 77.5515 14.6374C78.6904 14.6374 79.7783 14.2652 80.3971 13.3618L80.3971 13.3291L80.4298 13.3618L80.299 14.4575L82.6867 14.4575C83.0125 12.0934 83.7661 10.3284 83.7661 9.09334C83.7661 7.16551 82.1045 6.42761 80.0864 6.42761ZM94.6579 11.0558C94.6579 9.23399 95.9525 6.42761 99.7277 6.42761C101.957 6.42761 103.636 7.46708 103.636 9.84563C103.636 10.1623 103.538 10.8511 103.424 11.3175L97.4218 11.3175C97.4545 12.1607 97.9209 12.8221 99.7113 12.8221C100.492 12.8221 101.548 12.6435 102.361 12.2824L101.985 14.1958C100.959 14.4824 99.8716 14.6374 99.0245 14.6374C96.1939 14.6374 94.6579 13.0288 94.6579 11.0558ZM29.6665 6.60748L31.5308 14.4248C31.1893 15.2235 30.6601 15.7168 29.83 15.7168C29.2766 15.7168 28.8631 15.5931 28.489 15.4878L27.8675 17.4667C28.4209 17.6315 29.132 17.7937 30.1734 17.7937C32.045 17.7937 33.0066 16.8733 33.8695 15.4878L39.4299 6.60748L36.3226 6.60748L33.4443 11.5628L33.4116 11.5628L32.6429 6.60748L29.6665 6.60748ZM7.6374 8.04667C7.89915 8.01225 8.13081 8.00436 8.35698 7.99761C9.94015 7.95037 10.6314 8.6046 10.0578 10.3853C9.31991 12.6742 8.26801 14.8389 6.34542 17.6956C6.22767 17.606 6.10861 17.5138 5.98563 17.4176C2.72268 14.863 0.761937 12.5505 0.163542 10.5489C0.163542 10.5489 0.147847 10.4854 0.147188 10.4834C0.136721 10.4527 0.0660656 10.2643 0 9.96011C1.43851 9.40407 4.15004 8.50721 7.6374 8.04667ZM18.84 8.06303C18.6816 8.06635 18.5244 8.08233 18.3657 8.09574C16.3372 8.26713 15.5659 9.64676 14.4571 11.4156C13.5956 12.7894 10.7957 17.7198 9.58356 19.8544C11.0024 20.5341 12.3271 20.5727 13.7702 20.116C14.7613 19.802 15.2676 19.5463 15.8308 19.1348C16.0186 18.9974 16.1815 18.8542 16.3051 18.6769L16.3542 18.6115C16.3705 18.5886 16.3875 18.5696 16.4032 18.546C18.2258 15.7043 19.5328 11.3646 20.1483 9.02792C20.2223 8.74794 20.2929 8.45422 20.361 8.17751C19.8026 8.08674 19.3154 8.05306 18.84 8.06303ZM101.2 9.78021C101.2 8.93699 100.834 8.24292 99.7604 8.24292C98.4913 8.24292 97.8136 9.02793 97.6016 9.78021L101.2 9.78021ZM48.1958 8.32465C49.3347 8.32465 49.7167 9.09853 49.7167 9.911C49.7167 11.6884 48.8598 12.7403 47.4925 12.7403C46.5002 12.7553 45.9062 12.0442 45.9062 10.9904C45.9062 9.74026 46.7802 8.32465 48.1958 8.32465ZM90.9946 10.1073C90.9946 9.32425 90.5812 8.50458 89.6045 8.50458C88.2216 8.50458 87.3803 9.72133 87.3803 10.9413C87.3803 11.9049 87.8592 12.5604 88.7868 12.5604C90.1703 12.5604 90.9946 11.1461 90.9946 10.1073ZM25.4634 10.925C25.6427 10.925 26.0044 10.9296 26.2484 10.9741C26.0372 12.0286 25.2934 12.8221 24.0406 12.8221C23.4225 12.8221 23.043 12.4152 23.043 12.0534C23.043 11.3607 24.0642 10.8799 25.4634 10.925ZM80.6914 10.9741C80.4474 10.9296 80.085 10.925 79.9064 10.925C78.5072 10.8799 77.486 11.3607 77.486 12.0534C77.486 12.4152 77.8491 12.8221 78.4673 12.8221C79.72 12.8221 80.4801 12.0286 80.6914 10.9741Z" id="Combined-Shape" fill="#FFFFFF" fill-rule="evenodd" stroke="none" />
</svg>