<?xml version="1.0" encoding="utf-8"?>
<svg width="80px" height="24px" viewBox="0 0 80 24" version="1.1" xmlns:xlink="http://www.w3.org/1999/xlink" xmlns="http://www.w3.org/2000/svg">
  <desc>Created with Lunacy</desc>
  <path d="M36.1423 0.148071C36.5464 -0.224741 37.0645 0.196182 37.1368 0.427829C37.1547 0.485181 37.178 0.545424 37.2026 0.609082C37.3914 1.09745 37.658 1.78683 36.1734 2.91397C34.4952 4.18822 30.3931 4.12586 28.2489 4.06369C27.7885 4.05034 26.9328 4.01814 25.8579 3.97769C21.9261 3.82974 15.0623 3.57145 13.8913 3.72196C11.716 4.00152 9.69596 4.65428 8.79471 5.86617C7.89367 7.07806 8.88836 7.4479 10.0068 7.41998C11.2498 7.3889 11.8564 7.18675 12.8036 6.82958C13.5324 6.55497 14.4932 6.47518 14.6372 7.31129C14.7716 8.09196 14.5439 8.5699 13.3942 9.02052C11.5951 9.72556 9.10555 9.78199 7.86238 9.37789C6.61941 8.974 5.1246 7.32059 6.33966 5.27577C7.61391 3.13155 9.50945 2.54095 11.2809 2.01272C13.0523 1.48449 16.841 1.33184 19.019 1.48449C29.2914 2.20383 32.2373 1.72434 33.456 1.52596C33.5535 1.51008 33.64 1.49601 33.7183 1.48449C34.775 1.32907 35.7384 0.521081 36.1423 0.148071ZM43.2515 7.8604L40.7727 7.48217C38.9051 10.4486 38.639 13.5184 38.959 15.6092L38.9566 15.5963C37.1107 16.9545 35.0109 18.3309 33.5319 18.6077C32.1573 18.8649 31.2323 18.2036 30.9836 17.7997C30.7349 17.3958 30.7349 16.5568 31.3255 15.6866C31.6086 15.2691 32.6851 13.4175 33.6624 11.7154C35.0041 11.6908 36.2261 11.6603 36.3908 11.6465C36.7639 11.6156 37.0123 11.4291 37.2299 11.1804C37.4475 10.9317 37.7271 10.3102 37.6029 9.90614C37.4977 9.56433 37.1698 9.57858 36.8833 9.59103C36.8312 9.5933 36.7805 9.5955 36.7328 9.5955C36.636 9.5955 35.8377 9.61629 34.8501 9.6347C35.1055 9.17893 35.2906 8.84413 35.3653 8.69426C35.7383 7.94843 34.7749 7.69976 34.3399 7.69976C34.271 7.69976 34.2022 7.69509 34.1335 7.69043C33.7679 7.66564 33.4058 7.6411 33.0656 8.32144C32.9744 8.50359 32.6938 9.00371 32.2976 9.66994C32.1941 9.67163 32.0932 9.6733 31.9958 9.6749L31.9954 9.6749L31.9952 9.67491L31.9951 9.67491C31.2965 9.68641 30.7715 9.69506 30.6546 9.69245C30.6734 9.68897 30.6885 9.68635 30.6989 9.68453C30.7097 9.68265 30.7156 9.68163 30.7155 9.68141C30.7155 9.68115 30.7072 9.68201 30.6888 9.68392C30.6772 9.68512 30.6616 9.68674 30.6417 9.68875C30.6224 9.69065 30.6277 9.69185 30.6546 9.69245C30.504 9.72031 30.1129 9.80315 29.9269 9.96831C29.6474 10.217 29.2743 10.8696 29.3676 11.3047C29.4608 11.7397 29.6474 11.7708 29.9269 11.7708C29.997 11.7708 30.4253 11.7651 31.0182 11.7558C29.6846 13.9275 28.1397 16.3661 27.7514 16.712C27.1802 17.2214 26.726 17.955 25.1411 18.4214C23.5562 18.8875 23.028 18.266 23.0589 17.3648C23.0902 16.4635 23.8669 15.3758 24.3019 14.7852C24.737 14.1948 25.2966 13.0759 25.4518 12.672C25.6072 12.2681 25.1411 11.864 24.4573 11.7708C23.7736 11.6775 23.463 11.9884 23.2143 12.299C22.9656 12.6099 21.5672 15.0651 20.2621 16.3703C18.9568 17.6754 16.7193 18.701 15.5383 19.0116C15.0718 19.1346 15.0289 19.6927 15.2122 19.9129C16.1289 21.0163 16.5328 21.0317 17.3097 20.8143C18.0866 20.5967 20.8836 18.7632 20.8836 18.7632C20.8836 18.7632 21.232 19.9655 22.0335 20.4102C23.0011 20.9468 24.547 20.9551 25.9802 20.5967C27.4719 20.2237 28.8702 18.8253 28.8702 18.8253C28.8702 18.8253 29.958 21.0317 32.8172 20.9076C34.6824 20.8264 36.8571 19.8509 38.3487 18.8253C39.0269 18.3593 39.2668 18.2244 39.7456 17.91C40.4997 19.1688 42.004 20.6878 44.2846 20.7522C46.2644 20.8078 47.6454 19.9983 48.671 19.397C48.8959 19.2652 49.1037 19.1434 49.2969 19.0429C50.4062 20.1392 51.8642 20.5512 52.9237 20.6278C55.5031 20.8143 57.119 19.074 57.119 19.074C57.119 19.074 58.4553 20.8763 60.5686 20.4413C61.4811 20.2534 62.5196 19.5597 63.3515 18.8598C63.8516 19.4791 64.6571 20.1776 65.137 20.3791C66.1212 20.7925 67.1165 20.7383 67.5299 20.5346C67.7 20.4508 68.0084 20.314 68.3705 19.9624C70.8495 20.1214 72.2846 18.7632 72.2846 18.7632C72.2846 18.7632 73.3406 20.7872 76.2313 20.6898C78.3743 20.6177 79.6189 19.1981 79.7432 18.9186C79.8675 18.6388 80.0847 17.8308 79.4943 17.3648C78.9835 16.9612 78.5421 17.3261 78.1708 17.6329C78.1132 17.6806 78.0572 17.7269 78.0029 17.7687C77.5986 18.0795 76.4178 18.5767 75.4855 18.3591C74.5531 18.1415 74.3175 17.3475 74.522 16.5879C74.7396 15.78 75.7451 14.0778 76.4599 12.9279L76.4602 12.9275L45.815 8.25154C44.8129 10.2747 42.6128 12.8202 41.2006 14.0417C41.1992 13.6035 41.2258 13.1537 41.2699 12.7031C41.4319 11.0526 42.3459 9.20565 43.2515 7.8604ZM21.008 7.10931C21.2669 6.7757 21.2566 6.45674 21.0701 6.20807C20.8836 5.95959 19.858 5.67983 19.2675 5.95959C18.6772 6.23915 18.4286 6.7365 18.211 7.04714C17.9934 7.35798 11.186 17.0054 10.162 18.4214C8.58716 20.5993 6.66627 21.784 5.03425 21.529C3.04546 21.2182 2.45506 19.9441 2.14422 19.3848C1.88822 18.9237 1.36731 18.7009 0.901244 18.8564C0.439733 19.0102 0 19.1662 0 19.7265C0 20.3791 0.65257 21.4668 1.21189 22.0883C1.7419 22.6773 3.48064 24.0151 6.02895 23.7354C8.15217 23.5024 9.63372 22.772 11.716 20.2237C13.82 17.6486 20.7371 7.45836 21.008 7.10931ZM60.9803 9.39172C61.739 9.39172 62.3537 8.77677 62.3537 8.01828C62.3537 7.25979 61.739 6.64483 60.9803 6.64483C60.2218 6.64483 59.6071 7.25978 59.6071 8.01828C59.6071 8.77677 60.2218 9.39172 60.9803 9.39172ZM27.8276 9.69638C27.8276 10.4549 27.2126 11.0698 26.4541 11.0698C25.6956 11.0698 25.0807 10.4549 25.0807 9.69638C25.0807 8.93789 25.6956 8.32293 26.4541 8.32293C27.2126 8.32293 27.8276 8.93789 27.8276 9.69638ZM52.4266 12.4544C52.5531 12.8124 52.5127 13.4948 52.2401 14.1947C51.9217 15.014 50.7666 16.1142 50.4247 16.1766C50.2568 15.7557 50.1937 15.3399 50.2202 15.0338C50.2824 14.319 50.7484 13.2315 51.2147 12.7031C51.5568 12.3154 52.2401 11.9262 52.4266 12.4544ZM65.8209 18.0173C66.2248 18.2659 67.1256 18.2659 67.3121 17.3647C67.4989 16.4635 66.9172 15.0205 66.4735 14.2569C66.4229 14.1701 66.1468 14.7515 65.8116 15.4572C65.5244 16.0619 65.1939 16.7578 64.9248 17.2029C65.2204 17.5823 65.577 17.8672 65.8209 18.0173Z" id="Combined-Shape" fill="#FFFFFF" fill-rule="evenodd" stroke="none" />
</svg>