<?xml version="1.0" encoding="utf-8"?>
<svg width="135px" height="11px" viewBox="0 0 135 11" version="1.1" xmlns:xlink="http://www.w3.org/1999/xlink" xmlns="http://www.w3.org/2000/svg">
  <desc>Created with Lunacy</desc>
  <path d="M58.1157 8.60963C59.7839 8.60963 60.0498 8.28519 60.0498 7.24851L60.0498 6.3772L61.8161 6.3772L61.8161 7.30025C61.8161 9.10089 61.234 10.2164 58.3377 10.2164L53.5135 10.2164C50.9199 10.2164 49.8639 9.11153 49.8639 6.39944L49.8639 3.81597C49.8639 1.14208 50.9557 0 53.5135 0L58.4034 0C61.085 0 61.6464 1.42978 61.6464 2.63086L61.6464 3.7212L59.9594 3.7212L59.9594 3.00752C59.9594 1.74649 59.3579 1.6082 58.077 1.6082L53.6431 1.6082C52.2689 1.6082 51.7076 2.10672 51.7076 3.3339L51.7076 6.88345C51.7076 8.10919 52.2689 8.60963 53.6431 8.60963L58.1157 8.60963ZM42.2508 8.11739L35.0081 8.11739L33.8351 10.1139L31.7279 10.1139L37.6738 0.103455L39.5871 0.103455L45.5296 10.1139L43.4244 10.1139L42.2508 8.11739ZM109.97 0.103455L104.028 10.1139L106.131 10.1139L107.306 8.11739L114.548 8.11739L115.722 10.1139L117.828 10.1139L111.884 0.103455L109.97 0.103455ZM132.884 0.103455L132.884 8.02068L124.63 0.103455L122.33 0.103455L122.33 10.1139L124.175 10.1139L124.175 2.19711L132.425 10.1139L134.727 10.1139L134.727 0.103455L132.884 0.103455ZM0 0.103943L0 1.71311L4.77384 1.71311L4.77384 10.1143L6.61606 10.1143L6.61606 1.71311L11.3909 1.71311L11.3909 0.103943L0 0.103943ZM17.9789 6.38299L23.9301 6.38299C25.0142 6.38299 25.5262 6.51789 25.5262 7.75571L25.5262 10.1143L27.2892 10.1143L27.2892 7.41773C27.2892 6.58704 26.9962 6.01793 26.3768 5.67559C26.9396 5.42658 27.4086 4.91453 27.4086 3.8295L27.4086 3.06069C27.4086 1.14304 26.8608 0.103943 23.9688 0.103943L16.1338 0.103943L16.1338 10.1143L17.9789 10.1143L17.9789 6.38299ZM78.5156 0.104431L78.8652 0.45692L72.1636 4.92517L79.4822 9.75993L79.1273 10.1129L76.6797 10.1129L70.198 5.71573L69.0666 5.71573L69.0666 10.1129L67.2244 10.1129L67.2244 0.104431L69.0666 0.104431L69.0666 4.10801L70.3025 4.10801L76.2242 0.104431L78.5156 0.104431ZM91.7265 7.80939L86.3575 0.104431L83.9302 0.104431L83.9302 10.1134L85.7753 10.1134L85.7753 2.4002L91.1236 10.1134L92.3324 10.1134L97.6797 2.4002L97.6797 10.1134L99.5229 10.1134L99.5229 0.104431L97.0975 0.104431L91.7265 7.80939ZM17.9789 1.7136L23.5119 1.7136C25.4731 1.7136 25.5649 2.09461 25.5649 2.82715L25.5649 3.68637C25.5649 4.37443 25.2792 4.77334 23.8257 4.77334L17.9789 4.77334L17.9789 1.7136ZM38.6297 1.98533L35.9554 6.50918L41.3041 6.50918L38.6297 1.98533ZM113.6 6.50918L108.252 6.50918L110.927 1.98533L113.6 6.50918Z" id="Combined-Shape" fill="#FFFFFF" fill-rule="evenodd" stroke="none" />
</svg>